<?xml version="1.0" encoding="utf-8"?>
<!-- Generator: Adobe Illustrator 23.0.1, SVG Export Plug-In . SVG Version: 6.00 Build 0)  -->
<svg version="1.1" id="Vrstva_3" xmlns="http://www.w3.org/2000/svg" xmlns:xlink="http://www.w3.org/1999/xlink" x="0px" y="0px"
	 viewBox="0 0 456 456" style="enable-background:new 0 0 456 456;" xml:space="preserve">
<style type="text/css">
	.st0{fill:#EEEEEE;}
	.st1{fill:#CCCCCC;}
	.st2{fill:#E2E3E5;}
	.st3{fill:#FFFFFF;}
</style>
<g transform="translate(1 1)">
	<polygon class="st0" points="277.6,182.5 199.3,192.1 199.3,147.7 277.6,138.2 	"/>
	<polygon class="st1" points="334.1,174.7 251.5,182.5 251.5,138.2 334.1,130.3 	"/>
	<polygon class="st2" points="321,174.7 212.4,192.1 212.4,147.7 321,130.3 	"/>
	<g>
		<path class="st1" d="M199.3,325.9c0,19.1-17.4,34.8-39.1,34.8s-39.1-15.6-39.1-34.8s17.4-34.8,39.1-34.8S199.3,306.8,199.3,325.9"
			/>
		<path class="st1" d="M334.1,282.4c0,19.1-17.4,34.8-39.1,34.8c-21.8,0-39.1-15.6-39.1-34.8s17.4-34.8,39.1-34.8
			C316.7,247.6,334.1,263.3,334.1,282.4"/>
	</g>
	<g>
		<path class="st2" d="M186.3,325.9c0,19.1-11.7,34.8-26.1,34.8c-14.4,0-26.1-15.6-26.1-34.8s11.7-34.8,26.1-34.8
			S186.3,306.8,186.3,325.9"/>
		<path class="st2" d="M321,282.4c0,19.1-11.7,34.8-26.1,34.8s-26.1-15.6-26.1-34.8s11.7-34.8,26.1-34.8S321,263.3,321,282.4"/>
	</g>
	<g>
		<path class="st3" d="M268.8,282.4c0-19.1,11.7-34.8,26.1-34.8c-21.7,0-39.1,15.6-39.1,34.8s17.4,34.8,39.1,34.8
			C280.6,317.2,268.8,301.6,268.8,282.4"/>
		<path class="st3" d="M134.2,325.9c0-19.1,11.7-34.8,26.1-34.8c-21.7,0-39.1,15.6-39.1,34.8s17.4,34.8,39.1,34.8
			C145.9,360.7,134.2,345,134.2,325.9"/>
	</g>
	<g>
		<path class="st3" d="M199.3,196.4c-0.9,0-2.2-0.4-3-0.9c-0.9-0.9-1.3-2.2-1.3-3.5v-44.3c0-2.2,1.7-3.9,3.9-4.3L333.6,126
			c1.3,0,2.6,0,3.5,0.9c0.8,0.9,1.3,2.2,1.3,3.5v44.3c0,2.2-1.7,3.9-3.9,4.3l-134.7,17.4H199.3z M203.7,151.6v35.6l126-16.5v-35.6
			L203.7,151.6z M334.1,174.7L334.1,174.7L334.1,174.7z"/>
		<path class="st3" d="M199.3,326.3c-2.6,0-4.3-1.7-4.3-4.3V173.8c0-2.6,1.7-4.3,4.3-4.3s4.3,1.7,4.3,4.3V322
			C203.7,324.6,202,326.3,199.3,326.3z"/>
		<path class="st3" d="M334.1,287.2c-2.6,0-4.3-1.7-4.3-4.3V156.4c0-2.6,1.7-4.3,4.3-4.3c2.6,0,4.3,1.7,4.3,4.3v126.5
			C338.4,285,336.7,287.2,334.1,287.2z"/>
		<path class="st3" d="M160.2,365c-23.9,0-43.5-17.4-43.5-39.1c0-21.8,19.6-39.1,43.5-39.1s43.5,17.4,43.5,39.1S184.1,365,160.2,365
			z M160.2,295.5c-19.1,0-34.8,13.5-34.8,30.4s15.6,30.4,34.8,30.4s34.8-13.5,34.8-30.4S179.4,295.5,160.2,295.5z"/>
		<path class="st3" d="M294.9,321.5c-23.9,0-43.5-17.4-43.5-39.1c0-21.8,19.6-39.1,43.5-39.1s43.5,17.4,43.5,39.1
			C338.4,304.2,318.8,321.5,294.9,321.5z M294.9,252c-19.1,0-34.8,13.5-34.8,30.4s15.6,30.4,34.8,30.4s34.8-13.5,34.8-30.4
			S314.1,252,294.9,252z"/>
	</g>
</g>
</svg>
