<?xml version="1.0" encoding="utf-8"?>
<!-- Generator: Adobe Illustrator 23.0.1, SVG Export Plug-In . SVG Version: 6.00 Build 0)  -->
<svg version="1.1" id="Vrstva_3" xmlns="http://www.w3.org/2000/svg" xmlns:xlink="http://www.w3.org/1999/xlink" x="0px" y="0px"
	 viewBox="0 0 456 456" style="enable-background:new 0 0 456 456;" xml:space="preserve">
<style type="text/css">
	.st0{fill:#EEEEEE;}
	.st1{fill:#CCCCCC;}
	.st2{fill:#E2E3E5;}
	.st3{fill:#FFFFFF;}
</style>
<g transform="translate(1 1)">
	<polygon class="st0" points="276.6,181.5 198.3,191.1 198.3,146.7 276.6,137.2 	"/>
	<polygon class="st1" points="333.1,173.7 250.5,181.5 250.5,137.2 333.1,129.3 	"/>
	<polygon class="st2" points="320,173.7 211.4,191.1 211.4,146.7 320,129.3 	"/>
	<g>
		<path class="st1" d="M198.3,324.9c0,19.1-17.4,34.8-39.1,34.8s-39.1-15.6-39.1-34.8s17.4-34.8,39.1-34.8S198.3,305.8,198.3,324.9"
			/>
		<path class="st1" d="M333.1,281.4c0,19.1-17.4,34.8-39.1,34.8c-21.8,0-39.1-15.6-39.1-34.8s17.4-34.8,39.1-34.8
			C315.7,246.6,333.1,262.3,333.1,281.4"/>
	</g>
	<g>
		<path class="st2" d="M185.3,324.9c0,19.1-11.7,34.8-26.1,34.8c-14.4,0-26.1-15.6-26.1-34.8s11.7-34.8,26.1-34.8
			C173.6,290.1,185.3,305.8,185.3,324.9"/>
		<path class="st2" d="M320,281.4c0,19.1-11.7,34.8-26.1,34.8s-26.1-15.6-26.1-34.8s11.7-34.8,26.1-34.8S320,262.3,320,281.4"/>
	</g>
	<g>
		<path class="st3" d="M267.8,281.4c0-19.1,11.7-34.8,26.1-34.8c-21.7,0-39.1,15.6-39.1,34.8s17.4,34.8,39.1,34.8
			C279.6,316.2,267.8,300.6,267.8,281.4"/>
		<path class="st3" d="M133.2,324.9c0-19.1,11.7-34.8,26.1-34.8c-21.7,0-39.1,15.6-39.1,34.8s17.4,34.8,39.1,34.8
			C144.9,359.7,133.2,344,133.2,324.9"/>
	</g>
	<g>
		<path class="st3" d="M198.3,195.4c-0.9,0-2.2-0.4-3-0.9c-0.9-0.9-1.3-2.2-1.3-3.5v-44.3c0-2.2,1.7-3.9,3.9-4.3L332.6,125
			c1.3,0,2.6,0,3.5,0.9c0.8,0.9,1.3,2.2,1.3,3.5v44.3c0,2.2-1.7,3.9-3.9,4.3l-134.7,17.4H198.3z M202.7,150.6v35.6l126-16.5v-35.6
			L202.7,150.6z M333.1,173.7L333.1,173.7L333.1,173.7z"/>
		<path class="st3" d="M198.3,325.3c-2.6,0-4.3-1.7-4.3-4.3V172.8c0-2.6,1.7-4.3,4.3-4.3c2.6,0,4.3,1.7,4.3,4.3V321
			C202.7,323.6,201,325.3,198.3,325.3z"/>
		<path class="st3" d="M333.1,286.2c-2.6,0-4.3-1.7-4.3-4.3V155.4c0-2.6,1.7-4.3,4.3-4.3c2.6,0,4.3,1.7,4.3,4.3v126.5
			C337.4,284,335.7,286.2,333.1,286.2z"/>
		<path class="st3" d="M159.2,364c-23.9,0-43.5-17.4-43.5-39.1c0-21.8,19.6-39.1,43.5-39.1s43.5,17.4,43.5,39.1
			C202.7,346.6,183.1,364,159.2,364z M159.2,294.5c-19.1,0-34.8,13.5-34.8,30.4c0,16.9,15.6,30.4,34.8,30.4s34.8-13.5,34.8-30.4
			S178.4,294.5,159.2,294.5z"/>
		<path class="st3" d="M293.9,320.5c-23.9,0-43.5-17.4-43.5-39.1c0-21.8,19.6-39.1,43.5-39.1c23.9,0,43.5,17.4,43.5,39.1
			C337.4,303.2,317.8,320.5,293.9,320.5z M293.9,251c-19.1,0-34.8,13.5-34.8,30.4s15.6,30.4,34.8,30.4s34.8-13.5,34.8-30.4
			S313.1,251,293.9,251z"/>
	</g>
</g>
</svg>
