<?xml version="1.0" encoding="utf-8"?>
<!-- Generator: Adobe Illustrator 23.0.1, SVG Export Plug-In . SVG Version: 6.00 Build 0)  -->
<svg version="1.1" id="Vrstva_3" xmlns="http://www.w3.org/2000/svg" xmlns:xlink="http://www.w3.org/1999/xlink" x="0px" y="0px"
	 viewBox="0 0 456 456" style="enable-background:new 0 0 456 456;" xml:space="preserve">
<style type="text/css">
	.st0{fill:#DFF2F4;}
	.st1{fill:#B5E3EA;}
	.st2{fill:#A3D5E0;}
	.st3{fill:#8EC5CE;}
</style>
<g>
	<g>
		<path class="st0" d="M141.4,229.5c0,1.6-1.3,3-3,3h-5.3c-1.6,0-3-1.3-3-3v-3.2c0-1.6,1.3-3,3-3h5.3c1.6,0,3,1.3,3,3V229.5z"/>
		<path class="st0" d="M156.7,237.3c0,1.6-1.3,3-3,3h-5.3c-1.6,0-3-1.3-3-3v-18.6c0-1.6,1.3-3,3-3h5.3c1.6,0,3,1.3,3,3V237.3z"/>
	</g>
	<g>
		<path class="st1" d="M172.1,241.1c0,1.6-1.3,3-3,3h-5.3c-1.6,0-3-1.3-3-3v-26.3c0-1.6,1.3-3,3-3h5.3c1.6,0,3,1.3,3,3V241.1z"/>
		<path class="st1" d="M187.5,248.8c0,1.6-1.3,3-3,3h-5.3c-1.6,0-3-1.3-3-3v-41.7c0-1.6,1.3-3,3-3h5.3c1.6,0,3,1.3,3,3V248.8z"/>
	</g>
	<g>
		<path class="st2" d="M202.9,264.2c0,1.6-1.3,3-3,3h-5.3c-1.6,0-3-1.3-3-3v-72.4c0-1.6,1.3-3,3-3h5.3c1.6,0,3,1.3,3,3V264.2z"/>
		<path class="st2" d="M218.2,271.9c0,1.6-1.3,3-3,3H210c-1.6,0-3-1.3-3-3v-87.8c0-1.6,1.3-3,3-3h5.3c1.6,0,3,1.3,3,3V271.9z"/>
	</g>
	<path class="st3" d="M233.6,295c0,1.6-1.3,3-3,3h-5.3c-1.6,0-3-1.3-3-3V161c0-1.6,1.3-3,3-3h5.3c1.6,0,3,1.3,3,3V295z"/>
	<g>
		<path class="st2" d="M249,264.2c0,1.6-1.3,3-3,3h-5.3c-1.6,0-3-1.3-3-3v-72.4c0-1.6,1.3-3,3-3h5.3c1.6,0,3,1.3,3,3V264.2z"/>
		<path class="st2" d="M264.4,248.8c0,1.6-1.3,3-3,3h-5.3c-1.6,0-3-1.3-3-3v-41.7c0-1.6,1.3-3,3-3h5.3c1.6,0,3,1.3,3,3V248.8z"/>
	</g>
	<g>
		<path class="st1" d="M279.8,256.5c0,1.6-1.3,3-3,3h-5.3c-1.6,0-3-1.3-3-3v-57c0-1.6,1.3-3,3-3h5.3c1.6,0,3,1.3,3,3V256.5z"/>
		<path class="st1" d="M295.1,241.1c0,1.6-1.3,3-3,3h-5.3c-1.6,0-3-1.3-3-3v-26.3c0-1.6,1.3-3,3-3h5.3c1.6,0,3,1.3,3,3V241.1z"/>
	</g>
	<g>
		<path class="st0" d="M325.9,229.6c0,1.6-1.3,3-3,3h-5.3c-1.6,0-3-1.3-3-3v-3.2c0-1.6,1.3-3,3-3h5.3c1.6,0,3,1.3,3,3V229.6z"/>
		<path class="st0" d="M310.5,233.5c0,1.6-1.3,3-3,3h-5.3c-1.6,0-3-1.3-3-3v-10.9c0-1.6,1.3-3,3-3h5.3c1.6,0,3,1.3,3,3V233.5z"/>
	</g>
</g>
</svg>
