<?xml version="1.0" encoding="utf-8"?>
<!-- Generator: Adobe Illustrator 23.0.1, SVG Export Plug-In . SVG Version: 6.00 Build 0)  -->
<svg version="1.1" id="Vrstva_2" xmlns="http://www.w3.org/2000/svg" xmlns:xlink="http://www.w3.org/1999/xlink" x="0px" y="0px"
	 viewBox="0 0 456 456" style="enable-background:new 0 0 456 456;" xml:space="preserve">
<style type="text/css">
	.st0{fill:#DFF2F4;}
	.st1{fill:#B5E3EA;}
	.st2{fill:#A3D5E0;}
	.st3{fill:#8EC5CE;}
</style>
<g>
	<g>
		<path class="st0" d="M115.2,229.9c0,2.1-1.7,3.9-3.9,3.9h-6.9c-2.1,0-3.9-1.7-3.9-3.9v-4.2c0-2.1,1.7-3.9,3.9-3.9h6.9
			c2.1,0,3.9,1.7,3.9,3.9V229.9z"/>
		<path class="st0" d="M135.2,240.1c0,2.1-1.7,3.9-3.9,3.9h-6.9c-2.1,0-3.9-1.7-3.9-3.9v-24.2c0-2.1,1.7-3.9,3.9-3.9h6.9
			c2.1,0,3.9,1.7,3.9,3.9V240.1z"/>
	</g>
	<g>
		<path class="st1" d="M155.2,245.1c0,2.1-1.7,3.9-3.9,3.9h-6.9c-2.1,0-3.9-1.7-3.9-3.9v-34.2c0-2.1,1.7-3.9,3.9-3.9h6.9
			c2.1,0,3.9,1.7,3.9,3.9V245.1z"/>
		<path class="st1" d="M175.2,255.1c0,2.1-1.7,3.9-3.9,3.9h-6.9c-2.1,0-3.9-1.7-3.9-3.9v-54.3c0-2.1,1.7-3.9,3.9-3.9h6.9
			c2.1,0,3.9,1.7,3.9,3.9V255.1z"/>
	</g>
	<g>
		<path class="st2" d="M195.3,275.2c0,2.1-1.7,3.9-3.9,3.9h-6.9c-2.1,0-3.9-1.7-3.9-3.9v-94.3c0-2.1,1.7-3.9,3.9-3.9h6.9
			c2.1,0,3.9,1.7,3.9,3.9V275.2z"/>
		<path class="st2" d="M215.3,285.2c0,2.1-1.7,3.9-3.9,3.9h-6.9c-2.1,0-3.9-1.7-3.9-3.9V170.8c0-2.1,1.7-3.9,3.9-3.9h6.9
			c2.1,0,3.9,1.7,3.9,3.9V285.2z"/>
	</g>
	<path class="st3" d="M235.3,315.2c0,2.1-1.7,3.9-3.9,3.9h-6.9c-2.1,0-3.9-1.7-3.9-3.9V140.8c0-2.1,1.7-3.9,3.9-3.9h6.9
		c2.1,0,3.9,1.7,3.9,3.9V315.2z"/>
	<g>
		<path class="st2" d="M255.3,275.2c0,2.1-1.7,3.9-3.9,3.9h-6.9c-2.1,0-3.9-1.7-3.9-3.9v-94.3c0-2.1,1.7-3.9,3.9-3.9h6.9
			c2.1,0,3.9,1.7,3.9,3.9V275.2z"/>
		<path class="st2" d="M275.4,255.1c0,2.1-1.7,3.9-3.9,3.9h-6.9c-2.1,0-3.9-1.7-3.9-3.9v-54.3c0-2.1,1.7-3.9,3.9-3.9h6.9
			c2.1,0,3.9,1.7,3.9,3.9V255.1z"/>
	</g>
	<g>
		<path class="st1" d="M295.4,265.1c0,2.1-1.7,3.9-3.9,3.9h-6.9c-2.1,0-3.9-1.7-3.9-3.9v-74.3c0-2.1,1.7-3.9,3.9-3.9h6.9
			c2.1,0,3.9,1.7,3.9,3.9V265.1z"/>
		<path class="st1" d="M315.4,245.1c0,2.1-1.7,3.9-3.9,3.9h-6.9c-2.1,0-3.9-1.7-3.9-3.9v-34.2c0-2.1,1.7-3.9,3.9-3.9h6.9
			c2.1,0,3.9,1.7,3.9,3.9V245.1z"/>
	</g>
	<g>
		<path class="st0" d="M355.5,230.1c0,2.1-1.7,3.9-3.9,3.9h-6.9c-2.1,0-3.9-1.7-3.9-3.9v-4.2c0-2.1,1.7-3.9,3.9-3.9h6.9
			c2.1,0,3.9,1.7,3.9,3.9V230.1z"/>
		<path class="st0" d="M335.4,235.1c0,2.1-1.7,3.9-3.9,3.9h-6.9c-2.1,0-3.9-1.7-3.9-3.9v-14.2c0-2.1,1.7-3.9,3.9-3.9h6.9
			c2.1,0,3.9,1.7,3.9,3.9V235.1z"/>
	</g>
</g>
</svg>
